<?xml version="1.0" standalone="no"?>
<!DOCTYPE svg PUBLIC "-//W3C//DTD SVG 20010904//EN"
 "http://www.w3.org/TR/2001/REC-SVG-20010904/DTD/svg10.dtd">
<svg version="1.0" xmlns="http://www.w3.org/2000/svg"
 width="700.000000pt" height="700.000000pt" viewBox="0 0 700.000000 700.000000"
 preserveAspectRatio="xMidYMid meet">
<metadata>
Created by potrace 1.11, written by Peter Selinger 2001-2013
</metadata>
<g transform="translate(0.000000,700.000000) scale(0.100000,-0.100000)"
fill="#000000" stroke="none">
<path d="M3298 6995 c-2 -1 -41 -5 -88 -8 -723 -50 -1467 -369 -2033 -870 -75
-67 -74 -64 -48 -192 10 -51 66 -375 74 -430 3 -16 10 -57 15 -90 6 -33 13
-73 16 -90 2 -16 7 -43 10 -60 3 -16 12 -73 21 -125 17 -107 16 -102 44 -260
11 -63 22 -131 25 -150 3 -19 8 -46 11 -60 5 -25 10 -54 20 -112 8 -43 11 -47
60 -68 39 -17 44 -24 64 -81 26 -79 26 -87 -2 -129 -32 -47 -29 -77 15 -136
27 -37 35 -57 33 -82 -1 -18 2 -56 7 -83 6 -33 6 -61 -1 -81 -25 -70 83 -192
197 -224 31 -8 114 -40 184 -70 225 -97 227 -97 373 -96 163 2 185 5 276 30
41 12 121 33 179 47 l105 26 107 -36 c59 -19 113 -35 121 -35 14 0 27 -20 27
-41 0 -5 -11 -14 -25 -19 -14 -5 -25 -13 -24 -17 0 -5 29 -27 63 -49 56 -37
72 -43 139 -48 l76 -6 26 37 c14 21 25 35 25 32 0 -7 44 1 170 28 89 20 121
21 235 7 141 -17 242 -10 345 24 92 31 153 45 234 57 21 3 64 19 95 35 33 18
89 36 137 44 91 16 123 33 235 127 41 35 100 84 130 109 119 99 172 155 198
212 43 94 195 259 273 297 26 12 51 28 57 35 15 17 26 76 15 77 -5 0 -16 2
-24 4 -8 1 -35 6 -60 9 -62 9 -96 36 -92 72 3 36 3 52 -4 140 -5 65 -8 72 -35
88 -36 21 -37 45 -3 77 57 53 72 137 34 194 -11 17 -20 33 -20 36 0 3 19 18
43 33 24 15 65 59 95 101 70 97 107 132 167 160 145 67 283 62 437 -16 32 -16
58 -33 58 -37 0 -5 11 -15 25 -22 13 -7 35 -28 47 -46 12 -18 25 -31 29 -28 4
2 10 34 14 71 4 38 8 75 10 83 1 8 6 42 9 75 4 33 9 80 12 104 3 25 5 47 6 50
2 22 -5 39 -25 61 -12 14 -40 47 -62 75 -210 260 -558 556 -888 754 -354 212
-861 396 -1230 446 -27 4 -59 8 -70 11 -26 5 -102 14 -172 20 -58 5 -512 14
-517 9z"/>
<path d="M982 5928 c-93 -95 -132 -140 -132 -151 0 -4 40 -149 90 -322 83
-290 109 -365 130 -365 14 0 87 -75 109 -112 21 -36 70 -82 78 -75 2 2 -3 39
-12 83 -15 80 -16 90 -35 204 -5 36 -12 76 -15 90 -7 43 -54 323 -61 364 -3
21 -8 48 -10 60 -8 42 -46 271 -47 289 -1 9 -4 17 -8 17 -3 0 -42 -37 -87 -82z"/>
<path d="M745 5658 c-221 -279 -428 -656 -544 -991 -54 -155 -107 -344 -125
-440 -25 -135 -34 -191 -42 -246 -3 -25 -8 -57 -10 -71 -12 -78 -19 -231 -19
-425 1 -227 5 -296 31 -475 8 -58 17 -114 18 -125 2 -11 6 -33 10 -50 3 -16 8
-39 10 -51 20 -104 98 -383 125 -449 5 -11 28 -69 51 -130 145 -376 404 -787
680 -1078 l64 -68 17 22 c9 12 21 37 27 55 9 31 8 34 -24 56 -73 50 -106 223
-79 418 9 64 10 158 4 255 -1 28 1 110 5 183 l7 133 -45 -6 c-80 -9 -116 25
-146 135 -25 93 -21 169 19 324 12 50 1 80 -38 95 -37 16 -54 6 -48 -27 7 -39
-34 -76 -76 -68 -70 14 -180 119 -192 183 -9 51 -31 113 -66 188 -16 35 -29
68 -29 74 0 7 -15 21 -34 32 -20 11 -39 33 -45 51 -9 26 -7 36 16 75 26 44 26
45 10 102 -13 45 -14 65 -5 93 9 29 7 41 -12 78 -38 75 -27 241 22 330 17 30
41 74 54 98 38 69 84 180 116 281 26 83 36 101 85 152 36 38 53 64 50 74 -4 8
-31 30 -61 50 -60 38 -61 42 -87 207 -44 281 117 485 375 473 74 -3 93 -6 139
-24 15 -6 27 -7 27 -3 0 8 -41 158 -77 282 -14 47 -31 108 -38 135 -31 115
-47 170 -50 173 -2 2 -33 -34 -70 -80z"/>
<path d="M6280 5513 c-6 -49 -14 -97 -16 -108 -2 -11 -6 -45 -9 -75 -5 -55
-13 -117 -20 -155 -5 -30 -16 -136 -19 -173 -4 -64 11 -14 38 123 16 77 30
149 32 160 2 11 7 34 9 50 3 17 8 37 10 45 2 8 6 26 9 40 3 14 9 47 14 75 10
50 5 71 -21 93 -12 10 -16 -2 -27 -75z"/>
<path d="M6366 5489 c-5 -17 -33 -152 -40 -194 -10 -58 -156 -780 -161 -792
-5 -16 3 -21 46 -28 19 -3 86 -31 149 -62 151 -74 196 -120 272 -274 123 -254
163 -437 133 -611 -7 -45 -6 -48 19 -57 31 -12 31 -14 10 -47 -15 -22 -22
-127 -15 -222 1 -7 13 -17 27 -22 23 -9 26 -15 21 -45 -6 -34 -4 -36 65 -80
39 -26 71 -45 73 -43 1 2 6 35 9 73 4 39 10 104 15 145 8 75 6 539 -3 594 -3
16 -7 59 -11 95 -3 36 -8 73 -10 81 -2 8 -6 31 -9 50 -36 226 -94 451 -176
670 -31 85 -136 326 -150 345 -4 6 -31 55 -60 110 -72 136 -199 331 -204 314z"/>
<path d="M1273 4763 c-13 -33 -7 -83 11 -101 17 -16 17 -15 11 33 -4 28 -7 58
-7 68 1 22 -7 22 -15 0z"/>
<path d="M6080 4730 c-49 -5 -50 -7 -35 -81 4 -23 3 -39 -4 -43 -6 -4 -11 -16
-11 -27 0 -27 47 -99 64 -99 15 0 18 11 36 120 6 36 13 74 15 86 8 35 -14 50
-65 44z"/>
<path d="M390 3875 c-18 -49 -22 -74 -12 -91 9 -16 10 -16 15 2 10 35 18 114
12 114 -3 0 -10 -11 -15 -25z"/>
<path d="M5427 3685 c-26 -20 -113 -76 -194 -126 -80 -50 -180 -114 -222 -144
-173 -121 -278 -156 -546 -182 -83 -8 -369 -9 -487 -1 -55 4 -65 2 -56 -9 6
-7 31 -13 57 -13 25 0 82 -6 126 -14 44 -8 104 -17 134 -21 30 -4 63 -9 75
-11 12 -2 41 -7 66 -10 25 -3 87 -12 138 -20 102 -16 123 -13 165 22 39 32
100 47 164 39 50 -6 53 -5 64 19 18 38 83 78 157 97 107 27 195 12 327 -54 36
-18 74 -29 95 -29 29 1 152 38 222 67 20 8 16 20 -33 95 -20 30 -64 109 -99
175 -78 148 -82 155 -95 155 -5 0 -31 -16 -58 -35z"/>
<path d="M421 3432 c-8 -81 -6 -109 7 -145 14 -37 14 -40 -10 -62 l-26 -24 29
-98 c16 -54 34 -108 40 -120 12 -23 96 -73 124 -73 14 0 14 4 -5 30 -59 83
-122 270 -135 400 -3 36 -8 77 -9 93 -4 41 -12 41 -15 -1z"/>
<path d="M3250 3312 c-8 -3 -27 -13 -41 -23 -23 -16 -29 -16 -53 -4 -25 13
-27 13 -38 -11 -12 -26 -33 -34 -83 -32 -16 1 -60 -7 -97 -18 -63 -17 -71 -17
-110 -3 -60 22 -93 15 -171 -38 -63 -43 -70 -45 -115 -39 -43 5 -78 9 -187 20
-22 2 -71 10 -109 16 -65 12 -214 8 -236 -5 -6 -3 -10 -15 -10 -26 0 -11 -29
-48 -65 -84 -89 -87 -86 -100 21 -111 41 -4 63 -1 101 16 33 15 73 23 128 25
44 2 98 6 120 9 22 3 60 8 85 11 25 3 61 7 81 10 200 23 712 28 772 7 75 -27
113 -135 111 -312 -1 -110 -10 -234 -20 -285 -9 -44 -12 -73 -19 -145 l-6 -65
53 -56 c29 -30 73 -77 97 -105 24 -27 65 -62 91 -79 57 -36 83 -66 106 -126
23 -60 24 -61 152 -156 97 -73 117 -84 140 -78 15 4 34 13 43 21 12 11 23 12
41 5 14 -5 45 -8 69 -7 24 1 58 -2 74 -7 36 -11 197 -9 208 2 5 5 16 39 26 77
17 63 71 211 105 287 8 18 31 75 51 127 20 52 41 104 46 115 34 75 111 298
116 336 4 33 -1 65 -15 110 -40 124 -49 253 -21 336 9 28 9 37 -2 43 -27 17
-47 -11 -78 -111 -61 -193 -105 -258 -201 -302 -114 -51 -227 11 -219 121 7
103 95 197 262 280 l72 35 -40 8 c-22 4 -60 10 -85 13 -25 3 -56 8 -70 10 -14
3 -68 10 -120 16 -120 14 -142 18 -210 31 -78 16 -98 14 -125 -11 l-24 -22
-13 21 c-17 27 -20 27 -69 -9 -65 -47 -96 -48 -176 -6 -37 19 -93 44 -123 55
-43 16 -60 29 -80 61 -14 22 -32 43 -42 46 -26 8 -81 12 -98 6z"/>
<path d="M5111 3278 c-76 -12 -145 -43 -137 -64 3 -8 6 -18 6 -20 0 -3 15 -3
33 0 17 3 59 8 92 11 33 2 72 7 86 10 14 3 46 -1 70 -8 35 -11 53 -11 84 -2
l40 11 -30 16 c-75 39 -171 57 -244 46z"/>
<path d="M2315 3210 c3 -5 18 -10 33 -10 21 0 24 2 12 10 -20 13 -53 13 -45 0z"/>
<path d="M1680 3175 c7 -9 15 -13 17 -11 7 7 -7 26 -19 26 -6 0 -6 -6 2 -15z"/>
<path d="M1790 3157 c0 -17 41 -97 50 -97 8 0 90 93 90 102 0 2 -31 4 -70 5
-42 0 -70 -4 -70 -10z"/>
<path d="M4590 3072 c-99 -31 -245 -114 -296 -167 -112 -118 -65 -260 73 -220
93 27 134 79 187 234 19 54 39 109 46 121 14 26 10 39 -10 32z"/>
<path d="M4742 3048 c-12 -16 -26 -89 -27 -148 -1 -47 17 -150 37 -209 l11
-35 24 70 c13 38 31 84 39 102 8 17 17 53 20 80 5 42 3 51 -25 86 -17 21 -31
45 -31 52 0 17 -34 18 -48 2z"/>
<path d="M6820 3011 c0 -14 18 -23 31 -15 8 4 7 9 -2 15 -18 11 -29 11 -29 0z"/>
<path d="M5361 2984 c-31 -13 -32 -16 -27 -53 6 -48 -19 -86 -64 -96 -36 -8
-48 -23 -23 -31 10 -3 32 -11 48 -18 44 -19 68 -3 94 59 17 41 29 56 52 64 27
9 68 46 69 62 0 4 -21 10 -47 14 -27 5 -53 9 -59 10 -6 2 -25 -3 -43 -11z"/>
<path d="M6901 2968 c12 -23 28 -38 42 -38 13 0 7 16 -13 38 -27 29 -44 29
-29 0z"/>
<path d="M5238 2939 c-56 -36 -60 -53 -18 -68 26 -9 34 -7 50 9 12 12 20 34
20 55 0 19 -1 35 -2 35 -2 0 -24 -14 -50 -31z"/>
<path d="M455 2870 c38 -109 72 -136 160 -130 37 2 46 16 32 47 -9 20 -17 23
-50 21 -37 -2 -43 2 -104 67 l-64 70 26 -75z"/>
<path d="M4914 2873 c-3 -10 -12 -35 -20 -55 -14 -39 -39 -140 -48 -200 -11
-73 -18 -111 -21 -130 -3 -11 1 -18 8 -15 6 2 28 44 48 93 21 49 44 105 52
124 56 130 60 160 25 184 -29 20 -37 20 -44 -1z"/>
<path d="M6923 2872 c-22 -14 -31 -55 -18 -86 14 -33 20 -24 30 48 8 48 7 50
-12 38z"/>
<path d="M5016 2783 c-10 -27 -22 -57 -27 -68 -4 -11 -17 -43 -28 -71 -11 -28
-29 -71 -40 -95 -45 -96 -49 -120 -35 -177 8 -30 20 -63 28 -74 14 -19 15 -18
26 23 6 24 23 85 36 134 14 50 32 114 41 144 13 48 43 203 43 224 0 4 -6 7
-14 7 -7 0 -21 -21 -30 -47z"/>
<path d="M5140 2793 c0 -5 7 -18 15 -29 15 -18 15 -18 13 5 -3 23 -28 44 -28
24z"/>
<path d="M5100 2754 c0 -10 -11 -57 -25 -104 -13 -46 -22 -86 -20 -88 9 -9 55
9 80 31 l27 22 -26 74 c-28 81 -36 95 -36 65z"/>
<path d="M6854 2729 c-3 -6 -1 -16 5 -22 8 -8 11 -5 11 11 0 24 -5 28 -16 11z"/>
<path d="M4786 2614 c-4 -9 -4 -19 -2 -21 8 -8 26 8 26 23 0 19 -16 18 -24 -2z"/>
<path d="M6863 2614 c-3 -8 -1 -20 6 -27 8 -8 11 -8 11 0 0 6 3 18 6 27 3 9 1
16 -5 16 -7 0 -14 -7 -18 -16z"/>
<path d="M5042 2528 c-14 -14 -16 -38 -3 -38 10 0 26 39 19 46 -2 2 -10 -2
-16 -8z"/>
<path d="M4732 2448 c-22 -68 -116 -314 -148 -385 -8 -17 -14 -34 -14 -38 0
-3 -8 -25 -19 -48 -20 -45 -76 -198 -85 -234 -3 -13 -9 -32 -12 -44 -5 -18 -3
-20 18 -14 48 13 78 28 78 37 0 5 33 94 74 196 73 184 114 298 122 337 2 11 6
31 9 45 11 54 16 176 8 198 -8 20 -12 13 -31 -50z"/>
<path d="M778 2439 c-3 -8 -2 -22 1 -32 6 -16 9 -17 19 -5 9 11 9 19 -2 33
-10 14 -14 15 -18 4z"/>
<path d="M830 2382 c-30 -25 -33 -108 -4 -129 31 -22 57 -12 77 31 18 38 18
41 1 70 -29 50 -41 55 -74 28z"/>
<path d="M4820 2298 c-20 -45 -23 -75 -11 -118 7 -25 7 -25 34 15 14 22 28 51
30 65 4 23 -17 80 -29 80 -3 0 -14 -19 -24 -42z"/>
<path d="M6692 2160 c0 -19 2 -27 5 -17 2 9 2 25 0 35 -3 9 -5 1 -5 -18z"/>
<path d="M2498 2155 c-2 -1 -32 -6 -68 -9 -36 -4 -78 -9 -95 -11 -16 -3 -43
-7 -59 -10 -16 -2 -72 -7 -125 -10 -200 -13 -198 -12 -205 -90 -10 -127 -50
-190 -144 -226 -52 -20 -101 -26 -271 -29 -3 0 5 -10 16 -22 53 -57 83 -160
80 -274 -2 -55 -5 -65 -39 -103 -43 -46 -45 -56 -23 -109 20 -47 14 -73 -25
-95 -39 -23 -51 -15 -91 65 -29 57 -97 168 -103 168 -1 0 -3 -37 -4 -82 -3
-179 -13 -504 -18 -530 -4 -24 6 -34 88 -96 357 -267 764 -462 1203 -577 72
-19 144 -37 160 -40 17 -3 77 -14 135 -24 58 -11 137 -23 175 -26 39 -4 84 -9
100 -12 53 -8 497 -10 580 -2 44 4 107 11 140 14 33 3 112 14 175 26 63 11
127 22 142 24 41 6 231 56 250 66 9 5 23 20 30 33 20 38 132 259 140 278 5 11
-8 31 -43 68 -27 28 -49 59 -50 68 -2 27 2 84 8 106 23 103 30 170 25 241 -8
108 -3 368 12 583 1 17 0 32 -3 32 -3 0 -27 -29 -53 -63 -26 -34 -75 -91 -110
-127 -35 -36 -84 -92 -108 -125 -55 -77 -207 -225 -230 -225 -21 0 -69 52
-140 148 -55 77 -63 82 -105 75 -22 -5 -26 -3 -20 8 5 8 17 20 27 27 46 33 -1
95 -135 178 -51 31 -125 78 -164 105 -40 27 -77 49 -83 49 -28 0 -113 37 -179
77 -59 37 -75 43 -82 32 -13 -21 2 -214 18 -230 5 -4 22 -9 38 -11 23 -2 35
-12 50 -41 11 -20 28 -40 39 -43 14 -5 17 -12 12 -35 -5 -24 -2 -31 17 -38 13
-5 28 -16 35 -24 7 -8 24 -18 37 -21 14 -4 25 -12 25 -19 0 -23 119 -127 153
-134 61 -11 155 -64 161 -89 16 -63 -20 -97 -126 -120 -113 -24 -245 -20 -362
10 -102 28 -120 29 -251 27 -44 -1 -91 0 -104 3 -94 20 -194 77 -199 112 -2
12 20 69 48 128 27 59 50 111 50 116 0 6 -10 6 -25 0 -47 -18 -28 18 22 42 67
32 75 53 68 173 -2 55 -7 152 -10 215 -8 170 -12 206 -29 237 -32 60 -123 140
-193 170 -32 13 -175 27 -185 18z"/>
<path d="M6487 2148 c-9 -5 -8 -17 2 -50 19 -63 24 -127 13 -186 -8 -44 -7
-54 8 -67 16 -14 18 -14 24 0 9 24 19 137 20 229 l1 79 -28 1 c-15 1 -33 -2
-40 -6z"/>
<path d="M4746 2116 c-20 -48 -20 -62 0 -46 24 20 32 43 24 65 -6 17 -9 15
-24 -19z"/>
<path d="M1030 2092 c0 -25 16 -37 23 -18 3 8 -1 20 -9 26 -11 10 -14 9 -14
-8z"/>
<path d="M6367 2084 c-3 -3 -3 -12 0 -20 9 -25 -29 -104 -58 -120 -54 -28 -65
-73 -38 -152 11 -31 22 -65 24 -75 2 -9 6 -21 9 -26 3 -5 -1 -14 -9 -21 -13
-10 -19 -9 -36 6 l-21 19 7 -45 c9 -51 49 -192 62 -215 7 -12 18 -3 50 43 l40
57 -4 170 c-8 377 -9 395 -26 379z"/>
<path d="M6612 2005 c-7 -44 -17 -95 -22 -112 -11 -42 -7 -41 20 1 17 29 20
47 18 113 l-3 78 -13 -80z"/>
<path d="M1274 1962 c2 -4 9 -43 16 -87 17 -125 13 -357 -11 -568 -13 -111
-28 -139 -87 -158 -60 -19 -61 -20 -55 -132 l5 -102 42 -38 c22 -21 53 -47 69
-58 l27 -20 1 43 c0 24 2 66 4 93 1 28 6 150 9 273 3 123 9 228 12 234 9 13
11 41 20 228 11 238 11 246 -16 275 -22 23 -48 35 -36 17z"/>
<path d="M5405 1889 c-93 -54 -104 -65 -192 -198 -100 -149 -101 -154 -73
-216 l23 -50 -22 -40 c-14 -27 -23 -65 -26 -120 -7 -103 -10 -129 -47 -315
-16 -85 -28 -166 -25 -180 3 -14 17 -54 32 -89 27 -64 34 -134 22 -216 -4 -28
10 -65 25 -65 10 0 209 117 299 176 168 110 454 339 443 356 -3 4 -7 16 -9 25
-3 10 -9 38 -15 63 -16 66 -21 114 -20 218 0 82 -3 100 -28 155 -37 79 -48
115 -62 202 -14 86 -42 136 -112 199 -94 85 -128 119 -128 128 0 13 -12 9 -85
-33z"/>
<path d="M1030 1895 c-6 -68 -5 -207 2 -225 4 -10 21 -26 39 -36 l32 -16 -6
49 c-3 27 -15 79 -27 114 -12 35 -25 82 -30 104 -7 37 -8 38 -10 10z"/>
<path d="M1379 1768 c-1 -24 -2 -54 -3 -68 -2 -14 -6 -57 -10 -96 -4 -39 -8
-81 -11 -92 -2 -12 -1 -23 3 -26 4 -2 23 61 41 141 36 149 36 174 -3 181 -13
3 -16 -5 -17 -40z"/>
<path d="M1522 1610 c2 -44 -8 -160 -15 -191 -4 -15 10 -13 46 8 52 31 52 46
2 160 l-34 78 1 -55z"/>
<path d="M1004 1535 c-9 -60 -9 -158 -1 -216 6 -41 32 -109 42 -109 2 0 1 21
-1 48 -4 40 1 59 35 129 22 45 39 87 38 95 -4 23 -31 53 -69 76 l-37 23 -7
-46z"/>
<path d="M1241 1537 c-25 -28 -26 -51 -2 -96 l18 -34 10 72 c5 40 6 74 3 76
-4 3 -17 -6 -29 -18z"/>
<path d="M1402 1503 c-22 -55 -23 -78 -4 -105 l18 -27 1 80 c0 43 -1 79 -2 79
-1 0 -7 -12 -13 -27z"/>
<path d="M1170 1381 c0 -12 5 -21 10 -21 6 0 10 6 10 14 0 8 -4 18 -10 21 -5
3 -10 -3 -10 -14z"/>
<path d="M1183 1205 c-3 -9 -3 -19 1 -22 8 -9 37 18 30 28 -8 14 -24 11 -31
-6z"/>
<path d="M1056 1011 c-4 -7 -5 -15 -2 -18 9 -9 19 4 14 18 -4 11 -6 11 -12 0z"/>
</g>
</svg>
