<?xml version="1.0" encoding="utf-8"?>
<!-- Generator: Adobe Illustrator 16.0.0, SVG Export Plug-In . SVG Version: 6.00 Build 0)  -->
<!DOCTYPE svg PUBLIC "-//W3C//DTD SVG 1.1//EN" "http://www.w3.org/Graphics/SVG/1.1/DTD/svg11.dtd">
<svg version="1.1" id="Layer_1" xmlns="http://www.w3.org/2000/svg" xmlns:xlink="http://www.w3.org/1999/xlink" x="0px" y="0px"
	 width="518.975px" height="518.975px" viewBox="0 0 518.975 518.975" enable-background="new 0 0 518.975 518.975"
	 xml:space="preserve">
<g id="Layer_1_1_" display="none">
</g>
<g id="Layer_2">
	<g>
		<path fill="#000333" d="M515.996,302.317c-0.141-0.299-0.278-0.577-0.418-0.852c-0.039,0.234-0.078,0.469-0.116,0.702
			C515.633,302.22,515.808,302.271,515.996,302.317z"/>
		<path fill="#000333" d="M473.302,367.024c0.184-0.965,0.541-1.979-0.152-2.83c-0.145-0.178-1.104-0.041-1.295,0.229
			c-0.773,1.091,0.541,1.703,0.754,2.593c-2.031,2.002-1.088,5.809-3.848,7.147c-6.687,3.247-5.75,8.058-3.242,13.407
			c0.481,1.029,0.731,2.169,1.059,3.267c0.502,1.695,1.748,3.712-0.36,4.907c-2.107,1.193-1.81-2.366-4.101-2.362
			c1.201,7.106,3.535,13.878,5.832,20.642c2.201-2.965,4.342-5.975,6.418-9.032C474.201,392.323,473.744,379.672,473.302,367.024z"
			/>
		<path fill="#000333" d="M491.392,363.039c-0.891,6.464-2.414,12.823-3.291,19.29c1.184-2.197,2.33-4.417,3.451-6.652
			C491.58,371.474,491.506,367.26,491.392,363.039z"/>
		<path fill="#000333" d="M29.645,233.211c1.605-1.124,0.86-2.678,0.354-4.308c-0.432,1.049-0.863,2.098-1.297,3.146
			c-2.061,5.155-2.061,5.155,0.047,7.304C30.277,237.464,29.227,235.223,29.645,233.211z"/>
		<path fill="#000333" d="M512.251,312.901c0.324,0.602,0.591,1.216,0.81,1.832c0.682-3.139,1.322-6.293,1.889-9.473
			C511.142,306.606,510.191,309.078,512.251,312.901z"/>
		<path fill="#000333" d="M431.463,424.049c0.399-3.745-1.074-7.146-2.896-10.278c-2.662-4.582-3.533-9.674-3.961-14.729
			c-0.547-6.459-5.256-10.661-9.025-14.298c-2.481-2.394-6.319-3.853-7.995-7.5c-0.402-0.877-0.64-1.552-1.666-1.029
			c-5.414,2.749-11.947,5.392-14.636,10.224c-2.33,4.188-5.735,7.463-7.719,11.555c-1.764,3.643-6.563,7.238-2.113,12.404
			c1.672,1.941,1.229,4.773-0.754,6.779c-1.053,1.066-1.229,2.209-1.219,3.58c0.094,12.652-3.406,24.778-5.561,37.098
			c-0.445,2.553-0.55,4.74,0.799,7.127c2.258,3.997,3.596,8.262,3.803,13.02c0.146,3.32-1.951,7.418-0.447,9.459
			c0.517,0.699,0.933,1.441,1.313,2.195c20.215-10.552,38.865-23.683,55.514-38.963
			C432.271,442.131,430.476,433.265,431.463,424.049z"/>
		<path fill="#000333" d="M44.729,303.724c-9.911-13.404-11.974-28.863-12.871-44.714c0.184,5.765-3.243,11.527,0.389,17.179
			c0.771,1.201,0.394,3.058-0.944,3.449c-3.189,0.935-1.811,3.101-1.438,4.733c0.649,2.86,2.169,5.571,2.524,8.442
			C33.282,300.048,38.432,302.3,44.729,303.724z"/>
		<path fill="#000333" d="M462.752,132.334c-0.576,6.427-2.669,12.721-1.705,19.298c2.959-14.657,5.918-29.315,8.879-43.973
			c-1.072-1.482-2.156-2.956-3.258-4.414c-0.063,0.458-0.125,0.915-0.188,1.372C465.201,113.854,463.586,123.059,462.752,132.334z"
			/>
		<path fill="#000333" d="M100.762,179.501c0.431,2.337,0.258,6.855,4.146,7.115c3.571,0.239,4.449,2.614,5.047,4.892
			c0.92,3.513,3.595,7.712,0.486,10.755c-3.594,3.517-2.289,5.963-0.019,8.986c1.438,1.914,3.988,5.081,3.704,5.847
			c-1.749,4.717,1.876,9.286,0.251,13.458c-1.887,4.844,1.17,7.198,3.681,9.762c3.771,3.853,7.797,7.38,13.729,7.859
			c2.35,0.189,4.569,1.801,6.873,2.702c10.661,4.171,20.677,10.853,32.96,8.835c6.023-0.988,12.537,0.604,18.068-2.049
			c5.35-2.564,11.256-1.985,16.621-4.342c2.096-0.921,5.377-1.811,8.09-0.711c4.473,1.813,8.805,4,13.723,4.404
			c1.357,0.111,2.066,0.953,2.319,2.182c0.284,1.383-0.576,2.271-1.682,2.715c-0.871,0.35-2.063,0.061-2.13,1.546
			c2.325,1.453,5.112,2.512,6.908,4.476c2.645,2.892,5.794,1.834,8.786,2.146c2.856,0.298,5.988,2.193,7.373-2.872
			c0.113-0.414,0.318-0.72,0.58-0.959c0.326-0.179,0.649-0.365,0.979-0.533c1.582-0.479,3.959-0.065,5.619-0.642
			c7.609-2.635,15.267-3.946,23.554-2.402c5.952,1.107,12.069,1.818,18.5,0.688c6.664-1.172,12.545-4.369,19.151-5.507
			c4.711-0.811,9.863-0.735,13.953-3.892c2.625-2.025,5.812-2.826,8.804-2.77c5.618,0.105,9.646-2.773,13.707-5.856
			c1.698-1.292,3.231-2.802,4.854-4.2c7.313-6.303,15.031-12.114,21.781-19.1c2.373-2.455,1.561-5.815,3.867-8.171
			c6.664-6.809,11.143-15.89,21.096-19.238c2.481-0.834,3.115-4.063,2.93-6.331c-0.155-1.896-2.774-0.975-4.313-1.323
			c-2.99-0.678-6.433-0.725-8.611-3.008c-1.779-1.866-1.113-4.315,0.838-6.175c0.109-0.104-0.045-0.674-0.235-0.874
			c-2.777-2.893-1.759-6.362-1.396-9.673c0.174-1.576-0.65-1.743-1.766-2.367c-4.183-2.337-4.244-3.7-0.675-6.422
			c4.326-3.299,5.38-10.438,2.113-14.586c-0.92-1.17-2.365-2.57-0.199-3.489c5.482-2.326,8.166-7.26,11.199-11.749
			c2.187-3.231,4.555-5.952,7.965-7.891c7.957-4.527,16.386-5.926,25.215-3.637c8.511,2.205,15.938,6.337,21.509,14.596
			c0.666-5.405,1.198-9.913,1.776-14.415c0.72-5.591,1.265-11.208,2.066-16.787C417.086,39.353,342.888,0,259.488,0
			C190.881,0,128.505,26.637,82.104,70.118c2.721,15.622,7.166,41.179,8.398,48.581C93.883,138.975,97.031,159.291,100.762,179.501z
			"/>
		<path fill="#000333" d="M457.599,183.437c-0.187,0.989-1.566,3.346,1.096,3.512c6.681,0.418,11.83,4.461,17.543,7.144
			c4.604,2.161,8.316,5.587,11.037,9.783c6.432,9.922,10.445,20.917,13.594,32.263c1.89,6.803,2.302,13.562,0.804,20.528
			c-0.365,1.696-1.906,4.955,2.282,5.275c0.304,0.021,0.511,0.166,0.654,0.363c0.041,0.483,0.057,0.971,0.055,1.456
			c-0.034,0.062-0.069,0.121-0.116,0.166c-4.109,4.123-1.314,9.214-1.99,13.798c-0.342,2.32-1.269,5.327,2.879,5.853
			c0.281,0.036,0.541,0.212,0.756,0.458c0.156,0.35,0.32,0.693,0.492,1.033c0.086,0.479,0.025,0.996-0.269,1.436
			c-2.022,3.037,0.582,3.526,2.313,4.5c2.799,1.575,5.406,3.333,7.586,5.641c1.742-12.138,2.66-24.541,2.66-37.159
			c0-55.365-17.351-106.67-46.896-148.802c-2.926,14.959-5.862,29.916-8.834,44.866
			C461.396,164.854,459.347,174.117,457.599,183.437z"/>
		<path fill="#000333" d="M510.613,296.929c0.818,2.506,1.752,4.301,4.849,5.239c0.039-0.233,0.077-0.467,0.116-0.702
			C514.349,299.05,513.099,297.617,510.613,296.929z"/>
		<path fill="#000333" d="M82.033,143.103c0.746,0.267,0.96,1.807,1.718,2.286c4.074,2.575,4.151,8.928,9.739,10.436
			c-1.569-9.021-3.139-17.702-4.58-26.403c-1.677-10.133-6.429-38.367-9.485-56.761c-5.833,5.623-11.405,11.513-16.692,17.658
			c3.926,13.637,8.692,30.277,11.359,39.772C75.532,135.216,75.813,140.877,82.033,143.103z"/>
		<path fill="#000333" d="M73.251,429.152c-0.642-1.153-1.675-2.15-2.072-3.368c-2.501-7.668-3.966-16.016-2.233-23.477
			c1.271-5.479,1.14-10.666,1.394-15.976c0.113-2.354-1.954-5.015-1.407-7.112c1.896-7.297,0.504-14.672,1.848-22.111
			c-9.06,2.444-11.367-0.198-13.728-6.744c-2.985-8.283-2.635-17.194,0.509-25.688c1.984-5.365,0.124-8.289-6.123-9.203
			c0,1.153-0.064,2.301,0.012,3.441c0.26,3.852-2.318,4.958-5.322,4.979c-3.844,0.023-13.853-8.555-14.319-12.496
			c-0.798-6.707-4.085-12.473-6.586-18.494c-0.699-1.687-1.002-4.625-4.168-4.979c-2.408-0.27-4.074-6.111-2.209-7.729
			c2.842-2.461,2.94-5.174,1.987-8.506c-0.578-2.024-2.313-4.402-1.117-6.191c1.767-2.639,1.685-4.004-0.483-6.502
			c-3.102-3.572-1.682-20.263,1.057-24.17c4.88-6.966,8.206-14.717,11.381-22.604c2.604-6.471,2.506-14.31,9.671-18.726
			c3.813-2.351,2.756-5.625-1.759-7.542c-2.09-0.888-4.459-1.76-4.96-4.382c-1.023-5.356-2.441-10.718-2.704-16.125
			c-0.676-13.97,6.176-27.321,22.128-30.066c6.273-1.08,12.345-0.241,18.477,2.352c-0.078-0.946-0.028-1.61-0.197-2.213
			c-2.935-10.483-7.791-27.765-11.919-42.448C22.703,138.124,0,196.15,0,259.487c0,70.454,28.092,134.336,73.668,181.095
			c1.838-1.747,2.919-4.078,3.629-6.521C78.208,430.925,74.315,431.066,73.251,429.152z"/>
		<path fill="#000333" d="M79.172,442.792c-0.519,0.606-1.034,1.19-1.548,1.763c0.63,0.619,1.26,1.239,1.896,1.853
			C79.405,445.224,79.29,444.024,79.172,442.792z"/>
		<path fill="#000333" d="M343.501,487.114c1.485-2.211,1.258-3.844-1.392-5.623c-3.713-2.498-5.869-5.617-4.934-11.166
			c1.28-7.603,4.248-15.128,2.461-23.207c-0.615-2.788-0.828-5.8-0.607-8.871c0.838-11.611,1.16-23.26,1.679-34.895
			c-2.675,3.674-5.472,6.81-8.046,10.133c-3.688,4.765-8.86,8.271-11.981,13.288c-3.949,6.354-9.506,10.945-14.758,15.926
			c-1.943,1.843-3.832,1.842-5.908-0.528c-2.959-3.377-5.814-6.805-8.224-10.578c-1.983-3.107-3.834-6.165-8.037-3.105
			c-0.547-1.319-0.291-2.107,0.507-2.556c4.041-2.268,3.448-4.499,0.495-7.483c-7.067-7.148-16.815-10.203-24.467-16.426
			c-0.998-0.812-2.209-1.666-3.422-1.856c-6.418-1.009-11.707-4.304-16.724-8.087c-1.313-0.99-2.263-1.073-2.516,0.398
			c-0.913,5.31,0.17,10.556,1.059,15.767c0.526,3.103,3.336,1.127,4.963,1.868c1.164,0.531,1.592,1.551,2.178,2.546
			c0.814,1.385,0.523,3.686,3.141,3.747c0.36,0.01,1.911,1.656,0.7,2.725c-1.977,1.74-0.27,2.243,0.847,2.561
			c2.756,0.782,4.168,4.269,7.555,3.68c-0.445,5.268,5.855,5.305,7.139,9.212c0.384,1.167,1.146,1.283,2.232,1.424
			c4.08,0.527,7.727,2.439,11.396,4.108c3.232,1.47,3.855,5.626,1.574,8.345c-1.32,1.571-3.209,2.359-5.086,2.847
			c-11.547,2.998-23.049,2.92-34.32-1.222c-3.738-1.373-7.488-1.397-11.235-0.863c-8.697,1.239-16.543-0.86-23.789-5.555
			c-2.441-1.582-2.91-3.537-1.392-6.358c2.592-4.813,4.713-9.883,6.982-14.741c-1.813-1.447-2.664,1.732-4.299,0.188
			c0.147-1.747,1.521-2.519,2.932-2.821c5.599-1.211,6.642-5.074,6.338-10.029c-0.598-9.736-1.855-19.536-1.642-29.188
			c0.174-7.818-3.761-11.27-8.635-15.674c-6.139-5.548-12.863-6.813-20.595-5.818c-12.097,1.558-24.191,3.295-36.394,3.672
			c-3.642,0.111-4.785,0.951-4.879,4.746c-0.18,7.211-1.449,13.869-9.397,17.467c-7.044,3.188-14.104,3.235-22.396,2.317
			c4.848,4.119,7.055,8.854,7.447,14.203c0.389,5.274,2.669,11.289-2.252,15.427c-3.409,2.865-3.625,5.307-1.579,8.694
			c2.009,3.325,0.665,5.731-2.425,7.209c-3.585,1.716-4.847-1.637-5.548-3.688c-1.854-5.426-5.772-9.47-8.709-14.958
			c0,2.508,0.043,4.322-0.008,6.135c-0.359,12.979-0.432,25.975-1.188,38.932c-0.064,1.108-0.148,2.215-0.219,3.324
			c44.3,35.221,100.367,56.275,161.36,56.275c25.178,0,49.515-3.601,72.537-10.29c1.449-3.219,3.848-5.94,5.414-9.145
			C339.414,495.497,340.906,490.967,343.501,487.114z"/>
		<path fill="#000333" d="M96.33,412.987c1.243-1.312,1.158-2.939,1.236-4.596c0.387-8.273,0.756-16.551,1.337-24.811
			c0.493-7.016,0.593-7.072-4.553-11.538c1.738,8.345,2.487,16.526,2.162,24.785c-0.214,5.389-0.518,10.772-0.779,16.159
			c0.17,4.479-1.23,8.785-1.352,13.278c-0.105,3.989-2.135,7.4-6.864,7.684c-2.861,0.171-4.215,2.938-3.698,4.234
			c1.718,4.323-0.092,9.032,1.029,13.227c0.582,0.529,1.177,1.047,1.765,1.572c0.16-1.506-0.447-3.334,0.191-5.275
			c1.115,2.459,1.739,4.868,2.021,7.239c1.941,1.695,3.904,3.37,5.896,5.009c0.004-0.066,0.009-0.135,0.014-0.202
			C95.77,444.181,96.23,428.591,96.33,412.987z"/>
		<path fill="#000333" d="M75.828,442.642c-0.034,0.017-0.064,0.034-0.099,0.052c0.012,0.013,0.022,0.023,0.036,0.036
			C75.786,442.7,75.808,442.671,75.828,442.642z"/>
		<path fill="#000333" d="M509.126,327.087c0.225,0.407,0.411,0.814,0.604,1.223c0.428-1.556,0.85-3.111,1.248-4.679
			c-0.125,0.054-0.244,0.111-0.377,0.153C508.037,324.593,508.162,325.34,509.126,327.087z"/>
		<path fill="#000333" d="M355.896,322.738c0.318,1.762-2.609,2.991-0.869,5.147C356.674,326.388,356.83,324.685,355.896,322.738z"
			/>
		<path fill="#000333" d="M356.892,358.929c4.012-4.005,6.885-8.252,2.178-13.783C356.131,349.437,354.828,353.938,356.892,358.929z
			"/>
		<path fill="#000333" d="M374.65,309.158c-1.809-0.604-1.896,1.147-2.383,2.373c-2.947,7.426-5.469,15.084-9.133,22.146
			c-3.097,5.967-1.566,10.672,2.282,16.77c2.57-13.609,8.212-25.43,9.421-38.409C374.931,311.013,376.336,309.722,374.65,309.158z"
			/>
		<path fill="#000333" d="M374.426,331.062c-1.181,0.781-1.826,1.881-1.668,3.934c1.194-1.258,2.725-1.573,2.647-3.284
			C375.394,331.464,374.564,330.97,374.426,331.062z"/>
		<path fill="#000333" d="M355.894,295.22c-1.016-0.813,0.459-3.496-2.477-3.289c-2.693,0.188-2.429,2.283-2.884,3.825
			c-2.621,8.911-0.307,17.394,2.576,26.521c1.291-3.762,2.308-6.979,3.496-10.131C358.781,306.39,362.691,300.642,355.894,295.22z"
			/>
		<path fill="#000333" d="M378.619,313.292c-0.771,4.832-2.424,9.266-3.646,13.779c-0.25,0.922-0.875,2.334,0.18,2.388
			c2.357,0.119,4.086-1.815,6.111-2.825c1.145-0.57,1.52-1.68,1.063-2.96C381.09,320.214,379.853,316.753,378.619,313.292z"/>
		<path fill="#000333" d="M371.242,282.272c2.82-0.981,5.834-0.42,8.729-0.801c3.356-0.439,7.389-1.938,10.43-0.266
			c3.389,1.861,5.978,0.277,9.117-0.816c-2.371-1.033-4.684-2.244-7.127-3.065c-7.441-2.498-14.824-2.609-21.945,1.155
			c-0.867,0.457-2.481,0.562-1.85,2.313C369.049,282.046,369.83,282.763,371.242,282.272z"/>
		<path fill="#000333" d="M349.861,366.731c2.642-1.684,5.846-3.258,3.183-7.168C351.902,362.131,350.883,364.431,349.861,366.731z"
			/>
		<path fill="#000333" d="M352.492,331.798c-5.934,21.878-17.311,41.376-22.86,63.139c2.459-1.949,6.713-0.567,7.817-4.106
			c4.9-15.683,14.047-29.915,15.722-46.718C353.64,339.394,353.967,333.888,352.492,331.798z"/>
		<path fill="#000333" d="M380.525,310.916c0.978,1.575,0.791,3.209,3.205,4.287C383.119,313.09,383.217,311.369,380.525,310.916z"
			/>
		<path fill="#000333" d="M485.566,359.208c-1.619,0.166-3.164,0.118-4.746,0.021c-0.063,1.307-0.646,2.905-0.104,3.869
			c3.012,5.334,2.002,10.861,1.026,16.344c-0.426,2.394,0.728,3.31,2.547,4.233c1.433-7.216,1.703-14.46,2.136-21.682
			C486.482,361.03,487.146,359.045,485.566,359.208z"/>
		<path fill="#000333" d="M45.299,310.469c-3.28,1.505-5.168-0.274-7.004-2.727c-1.557-2.078-3.467-3.89-6.241-6.942
			c1.225,4.736,2.362,7.777,3.864,10.864c2.436,5.003,6.484,4.622,10.703,4.257c1.328-0.113,2.16-1.189,2.554-2.494
			C46.791,313.872,48.443,309.028,45.299,310.469z"/>
		<path fill="#000333" d="M508.24,296.383c-0.436-0.405-0.922-1.097-1.588-1.414c-0.705-0.336-1.215,0.11-1.19,0.97
			c0.032,1.131,0.954,1.15,1.709,1.408C507.789,297.558,508.039,297.259,508.24,296.383z"/>
		<path fill="#000333" d="M508.677,316.099c-0.775,0.277-1.338,0.748-0.996,1.43c0.256,0.512,0.94,0.808,1.434,1.199
			c0.14-0.459,0.39-0.918,0.39-1.375C509.506,316.783,509.605,315.97,508.677,316.099z"/>
		<path fill="#000333" d="M392.039,298.591c-2.358,1.623-4.127,3.053-6.084,4.137c-2.856,1.578-1.022,2.535,0.429,3.172
			C390.795,307.835,392.965,305.349,392.039,298.591z"/>
		<path fill="#000333" d="M364.89,304.454c-4.41,9.936-5.83,20.613-7.389,31.263c0.44,0.104,0.883,0.207,1.325,0.312
			c3.222-7.715,6.33-15.479,9.707-23.127C370.457,308.548,369.371,305.832,364.89,304.454z"/>
		<path fill="#000333" d="M451.708,168.242c-5.118-1.468-4.631,1.747-3.932,4.539c0.365,1.463,1.351,3.298,0.471,4.237
			c-3.45,3.679,0.938,5.754,1.496,8.555c0.164,0.82,1.416,1.558,2.453,1.249c1.047-0.313,1.193-1.358,1.33-2.422
			c0.502-3.902,1.066-7.799,1.754-11.671C455.844,169.564,456.131,166.839,451.708,168.242z"/>
		<path fill="#000333" d="M399.58,296.937c-2.645,0.582-5.028,0.476-4.065,4.605c0.977,4.193-1.252,6.95-5.672,7.547
			c-1.035,0.141-1.924,0.297-1.986,1.357c0.811,1.408,2.156,0.562,3.242,1.147c5.078,2.75,6.295,2.253,8.205-2.931
			c0.742-2.016,1.6-4.928,3.406-5.071c3.688-0.291,4.002-3.241,6.288-5.53C405.252,298.824,402.758,296.238,399.58,296.937z"/>
		<path fill="#000333" d="M408.455,244.68c-0.782-1.34-1.541-2.335-3.434-0.809c-7.814,6.298-16.768,10.879-25.203,16.244
			c-8.527,5.422-16.233,12.437-26.137,15.303c-10.451,3.026-21.313,3.929-32.164,4.586c-10.836,0.658-21.621-0.937-32.42-0.851
			c2.799,2.775,6.108,1.457,9.145,1.926c12.843,1.98,25.662,4.158,38.554,5.74c2.954,0.361,6.553,2.063,9.405-1
			c4.086-4.389,9.371-4.6,14.688-3.557c1.551,0.305,2.178,0.646,2.883-0.953c1.898-4.302,5.814-5.92,9.926-7.359
			c9.865-3.457,18.902-0.756,27.313,4.173c3.633,2.129,6.787,2.021,10.307,0.875c3.986-1.297,7.887-2.87,11.894-4.099
			c2.245-0.687,1.44-1.939,0.69-2.912C417.439,263.619,413.736,253.705,408.455,244.68z"/>
		<path fill="#000333" d="M496.338,361.587c0.17-1.928,0.34-3.854,0.51-5.781C495.34,357.757,495.205,359.668,496.338,361.587z"/>
		<path fill="#000333" d="M89.371,428.406c-2.052,0.043-1.708,2.148-2.297,3.521c1.271-0.639,2.947-0.714,3.188-2.454
			C90.309,429.147,89.678,428.399,89.371,428.406z"/>
		<path fill="#000333" d="M88.043,415.918c-0.253-0.358-0.768-0.535-1.162-0.795c-0.713,1.09-0.467,2.19-0.045,3.343
			C87.85,417.874,89.09,417.406,88.043,415.918z"/>
		<path fill="#000333" d="M76.113,402.205c-0.236-0.159-0.619-0.103-1.285-0.196c-2.264,13.07-1.071,23.854,3.634,28.376
			c-2.358-5.178-1.386-9.349,0.962-13.459C84.592,407.871,84.541,407.838,76.113,402.205z"/>
		<path fill="#000333" d="M93.063,414.69c0.568-4.066,1.05-7.504,1.649-11.803C89.275,406.585,89.135,407.968,93.063,414.69z"/>
		<path fill="#000333" d="M57.822,337.112c-0.295,1.693-0.587,3.259,0.27,5.064C60.365,340.246,60.363,338.694,57.822,337.112z"/>
		<path fill="#000333" d="M63.209,341.175c-2.653,0.393-3.655,3.645-3.517,6.08c0.132,2.303,0.296,5.426,3.514,5.788
			c4.561-0.106,3.199-4.538,5.286-6.241C66.438,345.125,66.727,340.656,63.209,341.175z"/>
		<path fill="#000333" d="M96.633,174.904c-0.499-3.424-0.948-6.509-1.555-10.666C92.461,168.783,93.107,171.846,96.633,174.904z"/>
		<path fill="#000333" d="M77.895,365.625c1.248-0.991-0.291-1.872-1.07-3.366c-0.207,1.124-0.354,1.596-0.369,2.07
			C76.426,365.326,76.564,366.683,77.895,365.625z"/>
		<path fill="#000333" d="M81.613,398.581c0.838-9.098-6.879-16.786-4.174-26.104c-2.411,6.188-1.033,12.422-1.439,18.527
			C75.67,395.944,77.3,397.687,81.613,398.581z"/>
		<path fill="#000333" d="M102.725,384.438c-0.798,8.32-1.582,16.492-2.367,24.66c0.288,0.043,0.576,0.084,0.863,0.127
			c1.465-6.328,2.51-12.795,4.548-18.933C107.023,386.515,105.623,385.426,102.725,384.438z"/>
		<path fill="#000333" d="M132.389,284.298c0.858,3.126,1.944,5.705,4.088,8.33c2.557-2.936,4.912-5.641,7.257-8.33
			C140.257,284.298,136.436,284.298,132.389,284.298z"/>
		<path fill="#000333" d="M175.611,281.437c-1.543-2.19-3.199-1.42-4.807-1.028C172.163,281.149,173.375,282.406,175.611,281.437z"
			/>
		<path fill="#000333" d="M123.791,282.454c0.867,0.559,0.967,2.318,2.676,1.755C126.232,282.802,125.599,281.929,123.791,282.454z"
			/>
		<path fill="#000333" d="M350.304,329.539c0.76-2.306,0.858-4.481-0.056-6.929c-3.383-9.063-5.157-18.351-2.616-27.995
			c0.325-1.235,2.207-2.657-0.228-3.546c-2.069-0.756-3.146,0.929-3.678,2.43c-1.248,3.525-2.066,7.202-3.271,10.745
			c-2.979,8.766-6.735,16.665-17.118,19.098c-4.402,1.031-7.41-0.268-10.187-3.094c-2.787-2.839-3.313-6.279-2.113-10.063
			c2.488-7.836,8.545-12.304,15.242-16.091c2.869-1.62,5.967-2.829,9.676-4.559c-12.823-1.81-24.518-3.794-36.293-4.943
			c-4.293-0.42-9.223-4.278-13.283,0.941c-0.58,0.746-1.487,0.692-1.868-0.408c-1.188-3.444-2.806-1.721-4.304-0.331
			c-4.352,4.038-8.756,4.852-13.926,1.169c-2.633-1.875-5.787-3.377-8.924-4.085c-3.672-0.829-5.514-2.798-6.912-6.064
			c-1.342-3.135-9.896-3.773-12.013-1.06c-2.46,3.154-4.437,0.657-6.562-0.399c-0.832,2.908-2.07,5.295-5.781,4.483
			c-0.149-0.032-0.286-0.168-0.414-0.272c-1.255-1.037-2.21-0.115-3.471,0.17c-4.275,0.967-8.358,3.93-13.171,1.179
			c-3.067-1.753-6.177-0.739-9.307,1.054c-3.47,1.988-6.647,6.348-10.737,5.127c-5.967-1.785-12.022-0.82-17.869-2.067
			c-6.619-1.412-13.173-2.41-19.888-0.896c-0.876,0.197-2.405-0.565-2.511,0.744c-0.457,5.614-5.494,7.563-8.688,10.847
			c-2.965,3.049-0.18,5.032,1.239,5.043c3.688,0.028,7.642,1.457,11.183-0.929c2.412-1.625,5.265-2.396,8.019-2.002
			c4.563,0.649,8.931-0.537,13.289-1.083c19.848-2.48,39.758-3.046,59.709-2.704c9.017,0.154,12.104,2.864,14.33,11.79
			c1.508,6.044,0.649,12.237,0.776,18.355c0.17,8.14-1.924,16.068-2.758,24.117c-0.305,2.938-1.772,6.338,1.388,8.764
			c6.292,4.828,9.396,12.83,17.066,16.438c3.717,1.75,6.094,5.504,7.125,9.684c0.504,2.05,1.729,3.367,3.207,4.763
			c3.59,3.384,8.129,5.409,11.771,8.838c2.271,2.14,6.047,5.188,9.679,0.899c0.571-0.676,1.551-1.026,2.252-0.482
			c3.516,2.727,7.551-0.48,11.615,1.436c3.512,1.658,8.428,0.215,12.713,0.406c2.074,0.094,2.729-0.645,3.227-2.557
			c1.191-4.573,2.402-9.186,4.146-13.564C336.933,364.526,344.435,347.351,350.304,329.539z"/>
		<path fill="#000333" d="M113.391,400.24c-0.621,4.847-1.24,9.69-1.922,15.012c7.632-3.427,8.271-5.203,4.969-11.312
			c-0.847-1.565-1.467-3.254-2.192-4.885c-0.382-0.977-0.763-1.949-1.536-3.926C112.498,397.649,112.088,399.065,113.391,400.24z"/>
		<path fill="#000333" d="M105.428,404.854c-4.084,6.205-4.115,9.765,0.608,13.375C103.084,413.39,105.826,409.315,105.428,404.854z
			"/>
		<path fill="#000333" d="M316.726,305.371c-2.377,3.106-4.111,6.612-2.639,10.867c1.114,3.225,3.905,4.471,6.551,4.321
			c4.254-0.237,8.078-1.967,11.084-5.514c5.828-6.873,5.94-15.926,10.396-24.488c-3.19,1.154-5.242,1.701-7.121,2.609
			C328.345,296.384,321.39,299.282,316.726,305.371z"/>
		<path fill="#000333" d="M86.613,452.983c0.735,0.657,1.47,1.313,2.213,1.964c-0.281-2.371-0.905-4.78-2.021-7.239
			C86.166,449.649,86.773,451.478,86.613,452.983z"/>
	</g>
</g>
</svg>
